<?xml version="1.0" standalone="no"?>
<!DOCTYPE svg PUBLIC "-//W3C//DTD SVG 20010904//EN"
 "http://www.w3.org/TR/2001/REC-SVG-20010904/DTD/svg10.dtd">
<svg version="1.0" xmlns="http://www.w3.org/2000/svg"
 width="757.000000pt" height="757.000000pt" viewBox="0 0 757.000000 757.000000"
 preserveAspectRatio="xMidYMid meet">
<metadata>
Created by potrace 1.14, written by Peter Selinger 2001-2017
</metadata>
<g transform="translate(0.000000,757.000000) scale(0.100000,-0.100000)"
fill="#000000" stroke="none">
<path d="M3923 6819 c-113 -10 -298 -51 -412 -91 -158 -55 -281 -120 -1006
-534 l-720 -411 -3 -1261 -2 -1262 42 -21 c24 -12 61 -34 84 -50 22 -15 94
-55 160 -88 65 -34 115 -61 109 -61 -18 -1 69 -31 97 -34 22 -2 29 3 38 27 7
20 10 416 10 1204 0 1264 -2 1211 51 1259 13 12 62 42 109 67 47 25 157 84
245 132 388 211 416 225 453 225 32 0 27 5 457 -470 136 -151 287 -318 335
-370 47 -52 131 -144 185 -205 55 -60 102 -112 105 -115 3 -3 75 -81 160 -175
84 -93 192 -213 240 -265 48 -52 140 -153 204 -225 65 -71 122 -131 127 -133
5 -2 9 3 9 12 0 9 6 16 14 16 35 0 36 48 36 1202 l0 1139 -22 42 c-13 23 -25
53 -28 67 -7 32 -137 108 -364 213 -290 135 -349 157 -461 167 -113 11 -124
10 -252 -1z m160 -503 c164 -32 322 -98 380 -159 l27 -29 0 -474 c0 -279 -4
-474 -9 -474 -5 0 -21 15 -36 33 -15 17 -55 61 -89 97 -34 36 -122 130 -196
210 -74 80 -162 174 -195 210 -51 54 -276 295 -388 417 l-29 32 78 39 c97 48
178 78 264 96 85 19 104 19 193 2z"/>
<path d="M5570 4942 l0 -1257 -432 -233 -433 -232 -56 57 c-30 32 -98 105
-149 163 -52 58 -144 159 -205 225 -136 149 -256 282 -285 315 -12 14 -38 43
-59 65 -20 22 -79 87 -131 145 -52 58 -113 125 -136 150 -76 83 -367 404 -499
550 -71 80 -169 185 -216 235 -48 49 -96 101 -108 115 l-20 25 -1 -1256 0
-1256 80 -52 c45 -28 100 -61 123 -73 23 -12 44 -24 47 -27 9 -11 81 -41 95
-41 8 0 15 -3 15 -8 0 -8 91 -52 109 -52 6 0 11 -4 11 -10 0 -5 7 -6 17 -3 11
4 14 3 9 -5 -4 -7 -2 -12 4 -12 7 0 41 -14 77 -30 35 -17 69 -28 74 -24 5 3 9
1 9 -4 0 -12 35 -26 120 -48 46 -13 107 -18 210 -18 221 -1 418 39 645 132 97
39 282 130 310 152 6 4 35 21 65 38 30 16 106 59 168 96 62 36 132 77 155 89
45 26 143 82 167 97 8 5 65 37 125 71 61 34 173 98 250 142 77 44 160 91 185
105 94 51 167 103 181 129 12 22 14 212 14 1234 l0 1207 -22 30 c-12 16 -26
44 -30 62 -8 30 -25 40 -238 151 -127 65 -233 119 -237 119 -5 0 -8 -566 -8
-1258z m-1697 -1456 l418 -448 -53 -31 c-29 -17 -100 -48 -158 -70 -86 -32
-122 -41 -196 -45 -98 -5 -147 3 -279 45 -104 33 -166 65 -215 110 l-40 35 0
482 0 481 53 -55 c29 -30 240 -257 470 -504z"/>
<path d="M3723 1612 l-63 -3 0 -394 0 -395 80 0 80 0 2 233 3 232 86 -230 87
-230 75 -3 74 -3 78 218 c43 120 82 227 86 238 4 11 8 -87 8 -217 l1 -238 90
0 90 0 0 395 0 395 -113 0 -112 0 -95 -255 c-52 -140 -97 -255 -100 -255 -3 0
-48 114 -100 254 l-95 254 -50 4 c-27 2 -78 2 -112 0z"/>
<path d="M1130 1215 l0 -395 80 0 80 0 2 273 3 272 159 -272 159 -273 89 0 88
0 0 395 0 395 -80 0 -80 0 0 -246 c0 -139 -4 -243 -9 -240 -5 3 -71 114 -147
246 l-139 240 -102 0 -103 0 0 -395z"/>
<path d="M2011 1406 c-50 -18 -103 -67 -136 -127 -28 -51 -30 -61 -30 -164 0
-95 3 -116 24 -158 29 -59 73 -104 126 -128 31 -14 65 -19 151 -19 99 0 115 3
163 26 32 16 64 43 82 66 29 41 44 76 36 84 -2 3 -38 7 -79 10 l-74 4 -25 -37
c-13 -20 -41 -45 -61 -56 l-38 -19 -42 24 c-51 28 -77 70 -85 137 l-6 51 212
0 211 0 0 39 c0 21 -9 69 -21 106 -24 80 -81 144 -145 163 -52 15 -218 14
-263 -2z m177 -80 c32 -17 72 -83 72 -120 l0 -26 -121 0 c-120 0 -120 0 -114
23 15 49 43 93 75 115 38 26 51 27 88 8z"/>
<path d="M4702 1394 c-80 -40 -124 -108 -142 -218 -25 -155 42 -304 157 -353
41 -17 231 -18 270 -1 58 25 102 69 135 135 30 61 33 75 32 157 0 78 -4 100
-27 151 -57 123 -111 154 -268 155 -93 0 -111 -3 -157 -26z m193 -74 c42 -26
59 -53 75 -119 27 -116 -10 -255 -79 -292 -31 -16 -35 -17 -67 -1 -55 26 -86
100 -86 206 -1 100 26 167 81 203 41 28 36 28 76 3z"/>
<path d="M5416 1413 c-4 -4 -52 -6 -107 -5 l-99 4 0 -296 0 -296 85 0 85 0 0
171 c0 201 9 247 60 300 44 47 71 49 111 10 l29 -29 0 -226 0 -226 85 0 85 0
0 213 c0 122 -5 229 -11 251 -27 98 -90 136 -225 136 -50 0 -94 -3 -98 -7z"/>
<path d="M5955 1401 c-54 -24 -120 -100 -142 -164 -26 -76 -24 -197 5 -261 34
-75 66 -111 124 -140 45 -23 64 -26 151 -26 121 0 165 12 221 61 41 36 84 105
73 116 -3 2 -40 6 -84 9 l-78 4 -24 -39 c-57 -94 -153 -82 -202 24 -10 22 -19
57 -19 78 l0 37 210 0 c239 0 219 -10 199 95 -19 102 -67 171 -143 206 -58 26
-234 26 -291 0z m200 -83 c28 -22 64 -89 65 -120 0 -16 -12 -18 -120 -18 -76
0 -120 4 -120 10 0 21 32 85 53 108 42 46 81 52 122 20z"/>
<path d="M2422 1398 c3 -7 42 -140 88 -295 l84 -283 77 0 78 0 20 68 c11 37
27 96 37 132 9 36 20 68 24 73 3 4 24 -55 46 -130 l40 -138 79 -3 80 -3 80
283 c44 156 81 289 83 296 3 10 -14 12 -74 10 l-77 -3 -24 -80 c-13 -44 -34
-111 -47 -148 l-22 -69 -44 149 -45 148 -72 3 -72 3 -20 -68 c-11 -37 -29
-101 -40 -142 -11 -40 -22 -75 -24 -77 -2 -2 -11 24 -21 58 -9 35 -28 100 -42
146 l-25 82 -86 0 c-64 0 -84 -3 -81 -12z"/>
<path d="M6380 1399 c0 -6 24 -79 54 -163 30 -83 75 -209 100 -279 l45 -128
-23 -52 c-30 -68 -45 -80 -111 -81 l-55 0 0 -38 c0 -47 14 -52 134 -47 78 4
87 6 116 34 43 40 49 54 125 266 119 329 175 488 175 494 0 3 -35 5 -78 5
l-77 0 -54 -152 c-30 -84 -57 -157 -61 -161 -4 -4 -19 25 -33 65 -15 40 -40
112 -58 161 l-31 87 -84 0 c-55 0 -84 -4 -84 -11z"/>
</g>
</svg>
